# Blender v2.79 (sub 0) OBJ File: ''
# www.blender.org
mtllib cube-with-interior.mtl
o Cube
v -4.000000 0.000000 4.000000
v -4.000000 8.000000 4.000000
v -4.000000 0.000000 -4.000000
v -4.000000 8.000000 -4.000000
v 4.000000 0.000000 4.000000
v 4.000000 8.000000 4.000000
v 4.000000 0.000000 -4.000000
v 4.000000 8.000000 -4.000000
v -3.000000 1.000000 3.000000
v -3.000000 7.000000 3.000000
v -3.000000 1.000000 -3.000000
v -3.000000 7.000000 -3.000000
v 3.000000 1.000000 3.000000
v 3.000000 7.000000 3.000000
v 3.000000 1.000000 -3.000000
v 3.000000 7.000000 -3.000000
vn -0.5773 0.5773 0.5773
vn -0.5773 -0.5773 -0.5773
vn -0.5773 -0.5773 0.5773
vn -0.5773 0.5773 -0.5773
vn 0.5773 -0.5773 -0.5773
vn 0.5773 0.5773 -0.5773
vn 0.5773 -0.5773 0.5773
vn 0.5773 0.5773 0.5773
usemtl None
s 1
f 2//1 3//2 1//3
f 4//4 7//5 3//2
f 8//6 5//7 7//5
f 6//8 1//3 5//7
f 7//5 1//3 3//2
f 4//4 6//8 8//6
f 2//1 4//4 3//2
f 4//4 8//6 7//5
f 8//6 6//8 5//7
f 6//8 2//1 1//3
f 7//5 5//7 1//3
f 4//4 2//1 6//8
f 10//5 9//6 11//8
f 12//7 11//8 15//1
f 16//3 15//1 13//4
f 14//2 13//4 9//6
f 15//1 11//8 9//6
f 12//7 16//3 14//2
f 10//5 11//8 12//7
f 12//7 15//1 16//3
f 16//3 13//4 14//2
f 14//2 9//6 10//5
f 15//1 9//6 13//4
f 12//7 14//2 10//5
