# Blender v2.79 (sub 0) OBJ File: ''
# www.blender.org
mtllib high-ceiling3.mtl
o Cube.002
v 4.000000 27.000000 -3.999996
v -4.000000 27.000000 -11.999996
v -4.000000 27.000000 -3.999996
v 5.000000 27.000000 -3.999996
v 4.000000 27.000000 -11.999996
v -5.000000 26.000000 -11.999996
v -5.000000 27.000000 -3.999996
v -5.000000 27.000000 -11.999996
v -5.000000 27.000000 -2.999996
v 4.000000 27.000000 -2.999996
v -4.000000 27.000000 -2.999996
v -4.000000 27.000000 -12.999996
v 5.000000 27.000000 -12.999996
v 5.000000 27.000000 -11.999996
v 4.000000 27.000000 -12.999996
v -5.000000 26.000000 -3.999996
v 4.000000 26.000000 -2.999996
v 5.000000 27.000000 -2.999996
v 5.000000 26.000000 -3.999996
v 5.000000 26.000000 -12.999996
v 5.000000 26.000000 -2.999996
v -5.000000 26.000000 -2.999996
v -4.000000 26.000000 -12.999996
v -5.000000 27.000000 -12.999996
v 5.000000 26.000000 -11.999996
v -5.000000 26.000000 -12.999996
v -4.000000 26.000000 -2.999996
v 4.000000 26.000000 -12.999996
v 5.000000 9.000000 -3.000000
v -5.000000 9.000004 -12.000000
v 4.000000 9.000000 -3.000000
v -4.000000 9.000004 -13.000000
v -4.000000 9.000000 -3.000000
v 5.000000 9.000004 -13.000000
v 5.000000 9.000004 -12.000000
v 4.000000 9.000004 -13.000000
v -5.000000 9.000000 -3.000000
v -5.000000 9.000000 -4.000000
v -5.000000 9.000004 -13.000000
v 5.000000 9.000000 -4.000000
v -4.000000 9.000000 5.000000
v 5.000000 9.000000 5.000000
v 4.000000 9.000000 5.000000
v -5.000000 9.000000 5.000000
v -4.000000 9.000000 6.000000
v 5.000000 9.000000 6.000000
v 4.000000 9.000000 6.000000
v 13.000000 9.000004 -12.000000
v 13.000000 9.000000 -4.000000
v 13.000000 9.000004 -13.000000
v 13.000000 9.000000 -3.000000
v 13.000000 9.000000 5.000000
v 13.000000 9.000000 6.000000
v 14.000000 9.000000 5.000000
v 14.000000 9.000004 -13.000000
v 14.000000 9.000004 -12.000000
v 14.000000 9.000000 -3.000000
v 14.000000 9.000000 -4.000000
v 14.000000 9.000000 6.000000
v 14.000000 8.000000 5.000000
v 4.000000 8.000000 6.000000
v 5.000000 8.000004 -13.000000
v 14.000000 8.000000 6.000000
v -4.000000 8.000004 -13.000000
v 5.000000 8.000000 6.000000
v 4.000000 8.000004 -13.000000
v -5.000000 9.000000 6.000000
v -4.000000 8.000000 6.000000
v 13.000000 8.000000 6.000000
v -5.000000 8.000004 -13.000000
v -5.000000 8.000000 6.000000
v 14.000000 8.000004 -12.000000
v -5.000000 8.000000 -4.000000
v -5.000000 8.000000 5.000000
v 13.000000 8.000004 -13.000000
v -5.000000 8.000004 -12.000000
v 14.000000 8.000000 -4.000000
v 14.000000 8.000004 -13.000000
v 14.000000 8.000000 -3.000000
v -5.000000 8.000000 -3.000000
v 5.000000 -0.000000 6.000000
v -5.000000 0.000000 -3.000000
v 14.000000 0.000000 -3.000000
v -4.000000 -0.000000 6.000000
v -4.000000 0.000004 -13.000000
v 14.000000 -0.000000 5.000000
v -5.000000 -0.000000 6.000000
v 4.000000 0.000004 -13.000000
v 14.000000 -0.000000 6.000000
v 5.000000 0.000004 -13.000000
v -5.000000 0.000004 -13.000000
v 13.000000 0.000004 -13.000000
v 13.000000 -0.000000 6.000000
v -5.000000 0.000004 -12.000000
v 14.000000 0.000004 -12.000000
v -5.000000 -0.000000 5.000000
v 14.000000 0.000000 -4.000000
v 4.000000 -0.000000 6.000000
v -5.000000 0.000000 -4.000000
v 14.000000 0.000004 -13.000000
v -5.000000 -0.999996 -12.000000
v 14.000000 -0.999996 -12.000000
v -5.000000 -1.000000 5.000000
v 14.000000 -1.000000 -4.000000
v 4.000000 -1.000000 6.000000
v -5.000000 -1.000000 -4.000000
v 14.000000 -0.999996 -13.000000
v 5.000000 -1.000000 6.000000
v -5.000000 -1.000000 -3.000000
v 14.000000 -1.000000 -3.000000
v -4.000000 -1.000000 6.000000
v -4.000000 -0.999996 -13.000000
v 14.000000 -1.000000 5.000000
v -5.000000 -1.000000 6.000000
v 4.000000 -0.999996 -13.000000
v 14.000000 -1.000000 6.000000
v 5.000000 -0.999996 -13.000000
v -5.000000 -0.999996 -13.000000
v 13.000000 -0.999996 -13.000000
v 13.000000 -1.000000 6.000000
v 5.000000 -0.999996 -12.000000
v 4.000000 -0.999996 -12.000000
v -4.000000 -0.999996 -12.000000
v 13.000000 -0.999996 -12.000000
v 5.000000 -1.000000 -4.000000
v 4.000000 -1.000000 -4.000000
v -4.000000 -1.000000 -4.000000
v 13.000000 -1.000000 -4.000000
v 5.000000 -1.000000 -3.000000
v 4.000000 -1.000000 -3.000000
v -4.000000 -1.000000 -3.000000
v 13.000000 -1.000000 -3.000000
v 5.000000 -1.000000 5.000000
v 4.000000 -1.000000 5.000000
v -4.000000 -1.000000 5.000000
v 13.000000 -1.000000 5.000000
vn 0.0000 1.0000 0.0000
vn 0.7071 0.7071 0.0000
vn -1.0000 0.0000 0.0000
vn -0.7071 0.7071 0.0000
vn -0.5774 0.5774 0.5774
vn 0.0000 0.7071 0.7071
vn 0.0000 0.7071 -0.7071
vn 0.5774 0.5774 -0.5774
vn 0.0000 -0.0000 1.0000
vn 0.5774 0.5774 0.5774
vn 1.0000 0.0000 0.0000
vn 0.7071 0.0000 -0.7071
vn 0.7071 -0.0000 0.7071
vn -0.7071 -0.0000 0.7071
vn 0.0000 0.0000 -1.0000
vn -0.5774 0.5774 -0.5774
vn -0.7071 0.0000 -0.7071
vn 0.3015 0.9045 0.3015
vn 0.3015 0.3015 -0.9045
vn -0.9045 0.3015 0.3015
vn -0.7071 -0.7071 -0.0000
vn 0.7071 -0.7071 -0.0000
vn 0.0000 -0.7071 0.7071
vn 0.5774 -0.5774 -0.5774
vn 0.0000 -0.7071 -0.7071
vn -0.5774 -0.5774 0.5774
vn 0.5774 -0.5774 0.5774
vn -0.5774 -0.5774 -0.5774
vn 0.0000 -1.0000 -0.0000
usemtl None.002
s 1
f 1//1 2//1 3//1
f 4//2 5//1 1//1
f 6//3 7//4 8//4
f 8//4 3//1 2//1
f 9//5 3//1 7//4
f 10//6 4//2 1//1
f 11//6 1//1 3//1
f 12//7 8//4 2//1
f 13//8 5//1 14//2
f 15//7 2//1 5//1
f 16//3 9//5 7//4
f 17//9 18//10 10//6
f 19//11 14//2 4//2
f 20//12 15//7 13//8
f 21//13 4//2 18//10
f 22//14 11//6 9//5
f 23//15 24//16 12//7
f 25//11 13//8 14//2
f 26//17 8//4 24//16
f 27//9 10//6 11//6
f 28//15 12//7 15//7
f 17//9 29//18 21//13
f 26//17 30//3 6//3
f 27//9 31//6 17//9
f 28//15 32//15 23//15
f 22//14 33//6 27//9
f 25//11 34//19 20//12
f 19//11 35//2 25//11
f 20//12 36//15 28//15
f 16//3 37//20 22//14
f 6//3 38//3 16//3
f 23//15 39//17 26//17
f 21//13 40//2 19//11
f 37//20 41//1 33//6
f 31//6 42//1 29//18
f 33//6 43//1 31//6
f 44//4 45//6 41//1
f 43//1 46//6 42//1
f 41//1 47//6 43//1
f 40//2 48//1 35//2
f 29//18 49//1 40//2
f 35//2 50//7 34//19
f 42//1 51//1 29//18
f 46//6 52//1 42//1
f 53//6 54//2 52//1
f 48//1 55//8 50//7
f 49//1 56//2 48//1
f 52//1 57//2 51//1
f 51//1 58//2 49//1
f 59//10 60//11 54//2
f 45//6 61//9 47//6
f 50//7 62//15 34//19
f 53//6 63//13 59//10
f 36//15 64//15 32//15
f 47//6 65//9 46//6
f 34//19 66//15 36//15
f 67//5 68//9 45//6
f 46//6 69//9 53//6
f 32//15 70//17 39//17
f 44//4 71//14 67//5
f 58//2 72//11 56//2
f 30//3 73//3 38//3
f 37//20 74//3 44//4
f 55//8 75//15 50//7
f 39//17 76//3 30//3
f 57//2 77//11 58//2
f 56//2 78//12 55//8
f 54//2 79//11 57//2
f 38//3 80//3 37//20
f 61//9 81//9 65//9
f 73//3 82//3 80//3
f 60//11 83//11 79//11
f 71//14 84//9 68//9
f 66//15 85//15 64//15
f 63//13 86//11 60//11
f 74//3 87//14 71//14
f 62//15 88//15 66//15
f 69//9 89//13 63//13
f 75//15 90//15 62//15
f 64//15 91//17 70//17
f 78//12 92//15 75//15
f 65//9 93//9 69//9
f 70//17 94//3 76//3
f 77//11 95//11 72//11
f 80//3 96//3 74//3
f 79//11 97//11 77//11
f 68//9 98//9 61//9
f 76//3 99//3 73//3
f 72//11 100//12 78//12
f 91//17 101//21 94//3
f 97//11 102//22 95//11
f 82//3 103//21 96//3
f 83//11 104//22 97//11
f 84//9 105//23 98//9
f 94//3 106//21 99//3
f 95//11 107//24 100//12
f 98//9 108//23 81//9
f 99//3 109//21 82//3
f 86//11 110//22 83//11
f 87//14 111//23 84//9
f 88//15 112//25 85//15
f 89//13 113//22 86//11
f 96//3 114//26 87//14
f 90//15 115//25 88//15
f 93//9 116//27 89//13
f 92//15 117//25 90//15
f 85//15 118//28 91//17
f 100//12 119//25 92//15
f 81//9 120//23 93//9
f 119//25 121//29 117//25
f 117//25 122//29 115//25
f 115//25 123//29 112//25
f 124//29 107//24 102//22
f 123//29 118//28 112//25
f 124//29 125//29 121//29
f 121//29 126//29 122//29
f 122//29 127//29 123//29
f 128//29 129//29 125//29
f 125//29 130//29 126//29
f 126//29 131//29 127//29
f 132//29 133//29 129//29
f 129//29 134//29 130//29
f 130//29 135//29 131//29
f 128//29 102//22 104//22
f 132//29 104//22 110//22
f 136//29 110//22 113//22
f 116//27 136//29 113//22
f 133//29 120//23 108//23
f 111//23 134//29 105//23
f 105//23 133//29 108//23
f 114//26 135//29 111//23
f 131//29 103//21 109//21
f 127//29 109//21 106//21
f 123//29 106//21 101//21
f 1//1 5//1 2//1
f 4//2 14//2 5//1
f 6//3 16//3 7//4
f 8//4 7//4 3//1
f 9//5 11//6 3//1
f 10//6 18//10 4//2
f 11//6 10//6 1//1
f 12//7 24//16 8//4
f 13//8 15//7 5//1
f 15//7 12//7 2//1
f 16//3 22//14 9//5
f 17//9 21//13 18//10
f 19//11 25//11 14//2
f 20//12 28//15 15//7
f 21//13 19//11 4//2
f 22//14 27//9 11//6
f 23//15 26//17 24//16
f 25//11 20//12 13//8
f 26//17 6//3 8//4
f 27//9 17//9 10//6
f 28//15 23//15 12//7
f 17//9 31//6 29//18
f 26//17 39//17 30//3
f 27//9 33//6 31//6
f 28//15 36//15 32//15
f 22//14 37//20 33//6
f 25//11 35//2 34//19
f 19//11 40//2 35//2
f 20//12 34//19 36//15
f 16//3 38//3 37//20
f 6//3 30//3 38//3
f 23//15 32//15 39//17
f 21//13 29//18 40//2
f 37//20 44//4 41//1
f 31//6 43//1 42//1
f 33//6 41//1 43//1
f 44//4 67//5 45//6
f 43//1 47//6 46//6
f 41//1 45//6 47//6
f 40//2 49//1 48//1
f 29//18 51//1 49//1
f 35//2 48//1 50//7
f 42//1 52//1 51//1
f 46//6 53//6 52//1
f 53//6 59//10 54//2
f 48//1 56//2 55//8
f 49//1 58//2 56//2
f 52//1 54//2 57//2
f 51//1 57//2 58//2
f 59//10 63//13 60//11
f 45//6 68//9 61//9
f 50//7 75//15 62//15
f 53//6 69//9 63//13
f 36//15 66//15 64//15
f 47//6 61//9 65//9
f 34//19 62//15 66//15
f 67//5 71//14 68//9
f 46//6 65//9 69//9
f 32//15 64//15 70//17
f 44//4 74//3 71//14
f 58//2 77//11 72//11
f 30//3 76//3 73//3
f 37//20 80//3 74//3
f 55//8 78//12 75//15
f 39//17 70//17 76//3
f 57//2 79//11 77//11
f 56//2 72//11 78//12
f 54//2 60//11 79//11
f 38//3 73//3 80//3
f 61//9 98//9 81//9
f 73//3 99//3 82//3
f 60//11 86//11 83//11
f 71//14 87//14 84//9
f 66//15 88//15 85//15
f 63//13 89//13 86//11
f 74//3 96//3 87//14
f 62//15 90//15 88//15
f 69//9 93//9 89//13
f 75//15 92//15 90//15
f 64//15 85//15 91//17
f 78//12 100//12 92//15
f 65//9 81//9 93//9
f 70//17 91//17 94//3
f 77//11 97//11 95//11
f 80//3 82//3 96//3
f 79//11 83//11 97//11
f 68//9 84//9 98//9
f 76//3 94//3 99//3
f 72//11 95//11 100//12
f 91//17 118//28 101//21
f 97//11 104//22 102//22
f 82//3 109//21 103//21
f 83//11 110//22 104//22
f 84//9 111//23 105//23
f 94//3 101//21 106//21
f 95//11 102//22 107//24
f 98//9 105//23 108//23
f 99//3 106//21 109//21
f 86//11 113//22 110//22
f 87//14 114//26 111//23
f 88//15 115//25 112//25
f 89//13 116//27 113//22
f 96//3 103//21 114//26
f 90//15 117//25 115//25
f 93//9 120//23 116//27
f 92//15 119//25 117//25
f 85//15 112//25 118//28
f 100//12 107//24 119//25
f 81//9 108//23 120//23
f 119//25 124//29 121//29
f 117//25 121//29 122//29
f 115//25 122//29 123//29
f 124//29 119//25 107//24
f 123//29 101//21 118//28
f 124//29 128//29 125//29
f 121//29 125//29 126//29
f 122//29 126//29 127//29
f 128//29 132//29 129//29
f 125//29 129//29 130//29
f 126//29 130//29 131//29
f 132//29 136//29 133//29
f 129//29 133//29 134//29
f 130//29 134//29 135//29
f 128//29 124//29 102//22
f 132//29 128//29 104//22
f 136//29 132//29 110//22
f 116//27 120//23 136//29
f 133//29 136//29 120//23
f 111//23 135//29 134//29
f 105//23 134//29 133//29
f 114//26 103//21 135//29
f 131//29 135//29 103//21
f 127//29 131//29 109//21
f 123//29 127//29 106//21
